<svg width="80" height="52" viewBox="0 0 80 52" fill="none" xmlns="http://www.w3.org/2000/svg">
<g filter="url(#filter0_d_2085_1868)">
<g clip-path="url(#clip0_2085_1868)">
<rect x="7" y="3" width="60" height="32" rx="15.952" fill="white"/>
<g filter="url(#filter1_d_2085_1868)">
<path d="M20.0955 18.0955C19.5959 18.595 19.5959 19.405 20.0955 19.9045L28.2363 28.0453C28.7358 28.5449 29.5458 28.5449 30.0453 28.0453C30.5449 27.5458 30.5449 26.7358 30.0453 26.2363L22.8091 19L30.0453 11.7637C30.5449 11.2642 30.5449 10.4542 30.0453 9.95466C29.5458 9.4551 28.7358 9.4551 28.2363 9.95466L20.0955 18.0955ZM53 17.7208L21 17.7208V20.2792L53 20.2792V17.7208Z" fill="#373867"/>
</g>
</g>
</g>
<defs>
<filter id="filter0_d_2085_1868" x="0" y="0" width="80" height="52" filterUnits="userSpaceOnUse" color-interpolation-filters="sRGB">
<feFlood flood-opacity="0" result="BackgroundImageFix"/>
<feColorMatrix in="SourceAlpha" type="matrix" values="0 0 0 0 0 0 0 0 0 0 0 0 0 0 0 0 0 0 127 0" result="hardAlpha"/>
<feOffset dx="3" dy="7"/>
<feGaussianBlur stdDeviation="5"/>
<feComposite in2="hardAlpha" operator="out"/>
<feColorMatrix type="matrix" values="0 0 0 0 0 0 0 0 0 0 0 0 0 0 0 0 0 0 0.25 0"/>
<feBlend mode="normal" in2="BackgroundImageFix" result="effect1_dropShadow_2085_1868"/>
<feBlend mode="normal" in="SourceGraphic" in2="effect1_dropShadow_2085_1868" result="shape"/>
</filter>
<filter id="filter1_d_2085_1868" x="16.3095" y="9.58008" width="40.1017" height="25.6623" filterUnits="userSpaceOnUse" color-interpolation-filters="sRGB">
<feFlood flood-opacity="0" result="BackgroundImageFix"/>
<feColorMatrix in="SourceAlpha" type="matrix" values="0 0 0 0 0 0 0 0 0 0 0 0 0 0 0 0 0 0 127 0" result="hardAlpha"/>
<feOffset dy="3.41121"/>
<feGaussianBlur stdDeviation="1.70561"/>
<feComposite in2="hardAlpha" operator="out"/>
<feColorMatrix type="matrix" values="0 0 0 0 0 0 0 0 0 0 0 0 0 0 0 0 0 0 0.25 0"/>
<feBlend mode="normal" in2="BackgroundImageFix" result="effect1_dropShadow_2085_1868"/>
<feBlend mode="normal" in="SourceGraphic" in2="effect1_dropShadow_2085_1868" result="shape"/>
</filter>
<clipPath id="clip0_2085_1868">
<rect x="7" y="3" width="60" height="32" rx="15.952" fill="white"/>
</clipPath>
</defs>
</svg>
