<svg width="14" height="16" viewBox="0 0 14 16" fill="none" xmlns="http://www.w3.org/2000/svg">
<path fill-rule="evenodd" clip-rule="evenodd" d="M7 7.55092C7.39556 7.55092 7.78224 7.66164 8.11114 7.86906C8.44004 8.07649 8.69638 8.37131 8.84776 8.71625C8.99913 9.06119 9.03874 9.44075 8.96157 9.80693C8.8844 10.1731 8.69392 10.5095 8.41421 10.7735C8.13451 11.0375 7.77814 11.2173 7.39018 11.2901C7.00222 11.3629 6.60008 11.3256 6.23463 11.1827C5.86918 11.0398 5.55682 10.7979 5.33706 10.4874C5.1173 10.177 5 9.81201 5 9.43865C5.00158 8.93845 5.2128 8.45917 5.58753 8.10548C5.96226 7.75178 6.47005 7.55242 7 7.55092ZM7 1.88773C6.47005 1.88922 5.96226 2.08859 5.58753 2.44228C5.2128 2.79598 5.00158 3.27526 5 3.77546H9C8.99842 3.27526 8.78719 2.79598 8.41246 2.44228C8.03773 2.08859 7.52995 1.88922 7 1.88773ZM12 15.1018H2C1.47005 15.1004 0.962265 14.901 0.587535 14.5473C0.212805 14.1936 0.00158273 13.7143 0 13.2141L0 5.66319C0.00158273 5.16299 0.212805 4.68371 0.587535 4.33001C0.962265 3.97632 1.47005 3.77695 2 3.77546H3C3 2.77415 3.42143 1.81384 4.17157 1.10581C4.92172 0.397771 5.93913 0 7 0C8.06087 0 9.07828 0.397771 9.82843 1.10581C10.5786 1.81384 11 2.77415 11 3.77546H12C12.5299 3.77695 13.0377 3.97632 13.4125 4.33001C13.7872 4.68371 13.9984 5.16299 14 5.66319V13.2141C13.9984 13.7143 13.7872 14.1936 13.4125 14.5473C13.0377 14.901 12.5299 15.1004 12 15.1018Z" fill="#222222"/>
</svg>
