<svg width="16" height="12" viewBox="0 0 16 12" fill="none" xmlns="http://www.w3.org/2000/svg">
<path fill-rule="evenodd" clip-rule="evenodd" d="M14 1.88773H2L8 6.60706L14 1.88773ZM0 1.88773C0.00158273 1.38753 0.212805 0.908248 0.587535 0.554554C0.962265 0.200859 1.47005 0.00149388 2 0L14 0C14.5299 0.00149388 15.0377 0.200859 15.4125 0.554554C15.7872 0.908248 15.9984 1.38753 16 1.88773V9.43865C15.9984 9.93885 15.7872 10.4181 15.4125 10.7718C15.0377 11.1255 14.5299 11.3249 14 11.3264H2C1.47005 11.3249 0.962265 11.1255 0.587535 10.7718C0.212805 10.4181 0.00158273 9.93885 0 9.43865L0 1.88773Z" fill="#212121"/>
</svg>
